#!OML:ASF F:\VICON\USERDATA\INSTALL\rory3\rory3.ASF
:FULLY-SPECIFIED
:DEGREES
1530
root 1.43845 17.7672 4.49218 6.71395 40.6191 -8.13353
lowerback 14.1199 8.54775 -3.06467
upperback 5.78935 10.8453 -4.00783
thorax -1.42404 5.45533 -4.11774
lowerneck -10.6214 -4.31879 -8.08244
upperneck 15.8198 -5.16832 4.69364
head 6.91885 -2.54187 2.36914
rclavicle -3.57812e-015 1.03368e-014
rhumerus 46.4908 48.01 -20.1635
rradius 46.2256
rwrist 44.9347
rhand -43.0075 374.289
rfingers 7.12502
rthumb -15.8656 -735.081
lclavicle -3.57812e-015 1.03368e-014
lhumerus -21.6672 -8.66076 68.3572
lradius 62.989
lwrist -1.15957
lhand -31.3953 21.5008
lfingers 7.12502
lthumb -4.66484 51.4294
rfemur -18.1845 4.80819 12.0382
rtibia 33.7464
rfoot -24.4094 -28.2581
rtoes -10.0477
lfemur -43.8939 -12.3496 -2.26222
ltibia 49.0533
lfoot -14.4034 -9.55955
ltoes -4.74756
1531
root 1.42947 17.7577 4.48987 6.68751 40.3386 -7.97036
lowerback 14.2229 8.41969 -2.94293
upperback 5.72257 10.68 -4.31632
thorax -1.47309 5.38202 -4.4968
lowerneck -10.5067 -4.21533 -7.72802
upperneck 15.6854 -5.08905 4.64185
head 6.83827 -2.48911 2.30426
rclavicle 1.27222e-014 1.51076e-014
rhumerus 46.3649 47.5983 -20.6704
rradius 46.5417
rwrist 45.0365
rhand -43.0461 373.679
rfingers 7.12502
rthumb -15.9028 -735.688
lclavicle 1.27222e-014 1.51076e-014
lhumerus -21.8423 -8.35087 67.8892
lradius 62.7812
lwrist -1.41478
lhand -31.1787 19.8105
lfingers 7.12502
lthumb -4.45565 49.7436
rfemur -18.2958 4.83302 11.8789
rtibia 34.0272
rfoot -24.4369 -28.0614
rtoes -10.4159
lfemur -43.7372 -12.3091 -2.3934
ltibia 49.1621
lfoot -14.3983 -9.44043
ltoes -5.19507
1532
root 1.42075 17.7489 4.48869 6.88905 39.9902 -7.52019
lowerback 14.1799 8.38193 -3.22153
upperback 5.66903 10.5899 -4.54715
thorax -1.51434 5.33718 -4.57463
lowerneck -10.3763 -4.17696 -7.60812
upperneck 15.6124 -5.07433 4.68615
head 6.78848 -2.4733 2.30266
rclavicle 6.75868e-014 -2.54444e-014
rhumerus 46.0618 47.0888 -21.0978
rradius 46.9272
rwrist 45.088
rhand -42.8445 373.113
rfingers 7.12502
rthumb -15.7086 -736.269
lclavicle 6.75868e-014 -2.54444e-014
lhumerus -22.1138 -8.50455 67.8824
lradius 62.8747
lwrist -0.583285
lhand -31.4901 20.3426
lfingers 7.12502
lthumb -4.75639 50.2692
rfemur -18.4677 4.91108 11.4701
rtibia 34.3155
rfoot -24.4002 -27.8555
rtoes -10.5327
lfemur -43.5739 -12.2776 -2.76404
ltibia 49.2256
lfoot -14.4019 -9.23943
ltoes -5.40254
1533
root 1.41034 17.743 4.4918 6.93566 39.6491 -7.19658
lowerback 14.0851 8.36777 -3.6923
upperback 5.70867 10.5174 -4.5362
thorax -1.50978 5.29277 -4.28823
lowerneck -10.4549 -4.13561 -7.84913
upperneck 15.6449 -4.99439 4.81323
head 6.81726 -2.43811 2.38967
rclavicle -1.43125e-013 2.3059e-014
rhumerus 46.0035 46.4996 -21.0441
rradius 47.3376
rwrist 44.8695
rhand -42.733 372.655
rfingers 7.12502
rthumb -15.6012 -736.736
lclavicle -1.43125e-013 2.3059e-014
lhumerus -22.2758 -8.24979 68.0758
lradius 62.7215
lwrist -0.588853
lhand -33.0355 20.668
lfingers 7.12502
lthumb -6.2485 50.5558
rfemur -18.5228 5.05462 11.1967
rtibia 34.5767
rfoot -24.3298 -27.7216
rtoes -10.7502
lfemur -43.2845 -12.2593 -3.03329
ltibia 49.2444
lfoot -14.5416 -9.07618
ltoes -5.16678
1534
root 1.39697 17.7418 4.49766 6.74394 39.3039 -7.27699
lowerback 13.7933 8.40851 -4.2043
upperback 5.80778 10.5344 -4.18961
thorax -1.40733 5.28381 -3.61218
lowerneck -10.5498 -4.15031 -8.25073
upperneck 15.6686 -4.91204 4.66858
head 6.84437 -2.43286 2.41457
rclavicle -9.30312e-014 3.97569e-014
rhumerus 46.0615 45.8363 -20.6824
rradius 47.675
rwrist 44.8627
rhand -43.089 372.224
rfingers 7.12502
rthumb -15.944 -737.14
lclavicle -9.30312e-014 3.97569e-014
lhumerus -22.4459 -7.7891 68.6576
lradius 62.5784
lwrist -1.04994
lhand -31.1603 20.554
lfingers 7.12502
lthumb -4.43793 50.4875
rfemur -18.5904 5.31288 11.2884
rtibia 34.8026
rfoot -24.2999 -27.7095
rtoes -10.9282
lfemur -43.0009 -12.1378 -2.94394
ltibia 49.2366
lfoot -14.6607 -9.01857
ltoes -4.45596
1535
root 1.38119 17.7412 4.49942 6.60743 38.8965 -7.30253
lowerback 13.72 8.31343 -4.18613
upperback 5.75737 10.4124 -4.37001
thorax -1.38759 5.22718 -3.78134
lowerneck -10.5387 -4.07089 -8.0589
upperneck 15.5645 -4.83872 4.66457
head 6.79822 -2.38749 2.38916
rclavicle 1.96399e-013 -4.69132e-014
rhumerus 45.673 44.9892 -21.6063
rradius 47.8983
rwrist 45.2236
rhand -43.784 372.614
rfingers 7.12502
rthumb -16.6132 -736.695
lclavicle 1.96399e-013 -4.69132e-014
lhumerus -22.6176 -7.73875 68.4306
lradius 62.5927
lwrist -1.32776
lhand -31.7373 21.0274
lfingers 7.12502
lthumb -4.99507 50.9485
rfemur -18.6972 5.64806 11.3201
rtibia 34.9834
rfoot -24.2659 -27.6688
rtoes -11.0388
lfemur -42.7306 -12.0106 -2.88288
ltibia 49.1992
lfoot -14.7096 -8.93484
ltoes -4.06877
1536
root 1.36516 17.7404 4.49898 6.54859 38.4476 -7.21535
lowerback 13.6939 8.19206 -4.26866
upperback 5.64974 10.2338 -4.56619
thorax -1.47002 5.14008 -3.91967
lowerneck -10.4595 -3.93338 -7.93968
upperneck 15.4477 -4.68704 4.7125
head 6.73421 -2.30523 2.40099
rclavicle 2.70347e-014 -5.08889e-014
rhumerus 45.4109 44.2074 -22.3184
rradius 48.3043
rwrist 45.3189
rhand -44.0026 372.429
rfingers 7.12502
rthumb -16.8237 -736.863
lclavicle 2.70347e-014 -5.08889e-014
lhumerus -22.9332 -7.89962 68.2748
lradius 62.6072
lwrist -0.702745
lhand -31.0489 21.8
lfingers 7.12502
lthumb -4.33039 51.7357
rfemur -18.8283 5.9591 11.2377
rtibia 35.1268
rfoot -24.0952 -27.6133
rtoes -11.3758
lfemur -42.4579 -11.9198 -2.9182
ltibia 49.1451
lfoot -14.8016 -8.699
ltoes -4.45205
1537
root 1.34798 17.7394 4.50234 6.48845 37.9993 -7.09316
lowerback 13.6141 8.11276 -4.56052
upperback 5.59129 10.0922 -4.61704
thorax -1.53322 5.0646 -3.7918
lowerneck -10.4892 -3.86367 -8.02129
upperneck 15.42 -4.57875 4.72265
head 6.72558 -2.25725 2.42748
rclavicle -8.5875e-014 2.70347e-014
rhumerus 45.3436 43.3723 -22.576
rradius 48.7788
rwrist 45.0092
rhand -43.7725 371.718
rfingers 7.12502
rthumb -16.6022 -737.592
lclavicle -8.5875e-014 2.70347e-014
lhumerus -23.1706 -7.90699 68.2929
lradius 62.4808
lwrist -0.485658
lhand -31.2178 21.7367
lfingers 7.12502
lthumb -4.49348 51.669
rfemur -18.9166 6.27261 11.1438
rtibia 35.2469
rfoot -23.9726 -27.5888
rtoes -11.6639
lfemur -42.1348 -11.8794 -2.96958
ltibia 49.074
lfoot -14.9639 -8.38403
ltoes -5.28374
1538
root 1.33054 17.7382 4.50756 6.28705 37.5687 -7.16138
lowerback 13.5586 8.07302 -4.70954
upperback 5.52097 10.0184 -4.59642
thorax -1.60909 5.02363 -3.67992
lowerneck -10.4935 -3.87895 -8.14589
upperneck 15.3957 -4.58061 4.73573
head 6.72225 -2.26463 2.45168
rclavicle -1.18476e-013 2.3059e-014
rhumerus 45.0809 42.4323 -22.8338
rradius 49.2695
rwrist 44.5989
rhand -43.8158 371.604
rfingers 7.12502
rthumb -16.6438 -737.702
lclavicle -1.18476e-013 2.3059e-014
lhumerus -23.3314 -7.72707 68.3548
lradius 62.2593
lwrist -1.40275
lhand -31.1402 21.3363
lfingers 7.12502
lthumb -4.41848 51.2702
rfemur -18.9213 6.67071 11.2392
rtibia 35.3199
rfoot -24.0115 -27.5797
rtoes -11.4687
lfemur -41.7875 -11.8126 -2.84454
ltibia 48.9977
lfoot -15.0683 -8.18924
ltoes -5.43849
1539
root 1.31479 17.7378 4.5112 6.20524 37.1619 -7.10643
lowerback 13.4537 7.9766 -4.84911
upperback 5.43353 9.87445 -4.65545
thorax -1.6619 4.95011 -3.63807
lowerneck -10.4395 -3.87318 -8.29216
upperneck 15.2628 -4.56659 4.82433
head 6.67496 -2.26008 2.50598
rclavicle 9.70069e-014 1.43125e-014
rhumerus 44.8449 41.4245 -23.2051
rradius 49.6929
rwrist 44.4574
rhand -44.2684 371.665
rfingers 7.12502
rthumb -17.0796 -737.605
lclavicle 9.70069e-014 1.43125e-014
lhumerus -23.5652 -7.66221 68.4228
lradius 62.056
lwrist -1.80068
lhand -31.3123 21.0656
lfingers 7.12502
lthumb -4.58467 50.996
rfemur -18.9102 7.03456 11.2287
rtibia 35.282
rfoot -23.9581 -27.6449
rtoes -11.2901
lfemur -41.4959 -11.8705 -2.79821
ltibia 48.9204
lfoot -15.2498 -7.85994
ltoes -5.29928
1540
root 1.3014 17.7407 4.51495 6.14056 36.7022 -7.04527
lowerback 13.2375 7.91103 -5.08344
upperback 5.36868 9.77137 -4.67655
thorax -1.65214 4.89469 -3.49487
lowerneck -10.361 -3.87648 -8.38411
upperneck 15.1033 -4.57058 4.88184
head 6.61409 -2.26373 2.53986
rclavicle 7.95139e-014 4.77083e-015
rhumerus 44.6261 40.3319 -23.5356
rradius 50.0903
rwrist 44.5806
rhand -44.7832 371.445
rfingers 7.12502
rthumb -17.575 -737.78
lclavicle 7.95139e-014 4.77083e-015
lhumerus -23.7721 -7.7255 68.5848
lradius 61.7909
lwrist -1.62124
lhand -31.7851 20.4036
lfingers 7.12502
lthumb -5.04122 50.3236
rfemur -18.8417 7.3786 11.2058
rtibia 35.0748
rfoot -23.7841 -27.7459
rtoes -11.2837
lfemur -41.1773 -11.897 -2.77358
ltibia 48.8367
lfoot -15.5127 -7.50707
ltoes -4.99905
